<svg width="13" height="13" viewBox="0 0 13 13" fill="none" xmlns="http://www.w3.org/2000/svg">
<path fill-rule="evenodd" clip-rule="evenodd" d="M8.70383 8.1761H9.29102L13 11.8925L11.8925 13L8.1761 9.29102V8.70383L7.97541 8.49571C7.12807 9.22413 6.02802 9.66266 4.83133 9.66266C2.16295 9.66266 0 7.49971 0 4.83133C0 2.16295 2.16295 0 4.83133 0C7.49971 0 9.66266 2.16295 9.66266 4.83133C9.66266 6.02802 9.22413 7.12807 8.49571 7.97541L8.70383 8.1761ZM1.48656 4.83133C1.48656 6.6821 2.98056 8.1761 4.83133 8.1761C6.6821 8.1761 8.1761 6.6821 8.1761 4.83133C8.1761 2.98056 6.6821 1.48656 4.83133 1.48656C2.98056 1.48656 1.48656 2.98056 1.48656 4.83133Z" fill="black" fill-opacity="0.85"/>
</svg>
